<svg width="800" height="800" viewBox="0 0 800 800" fill="none" xmlns="http://www.w3.org/2000/svg">
<g clip-path="url(#clip0_839_693)">
<path fill-rule="evenodd" clip-rule="evenodd" d="M402.965 109.152C678.448 109.152 571.082 565.672 402.965 565.672C244.181 565.672 127.482 109.152 402.965 109.152Z" fill="#FFE8BE"/>
<path d="M400 800C620.914 800 800 620.914 800 400C800 179.086 620.914 0 400 0C179.086 0 0 179.086 0 400C0 620.914 179.086 800 400 800Z" fill="#2975C2"/>
<path fill-rule="evenodd" clip-rule="evenodd" d="M215.496 324.972C215.496 324.972 233.542 566.008 189.865 631.057C146.189 696.106 403.588 628.597 403.588 628.597L403.665 177.295L215.496 324.972Z" fill="#302E33"/>
<path fill-rule="evenodd" clip-rule="evenodd" d="M591.652 324.972C591.652 324.972 573.607 566.008 617.296 631.057C660.986 696.106 403.574 628.597 403.574 628.597L403.496 177.295L591.652 324.972Z" fill="#302E33"/>
<path fill-rule="evenodd" clip-rule="evenodd" d="M683.459 682.216C675.588 663.29 677.064 644.442 614.008 615.07C584.326 608.054 507.73 597.995 493.257 571.057C485.917 557.438 487.691 538.241 487.691 502.552L320.312 500.713C320.312 536.662 321.723 555.833 313.529 569.296C298.124 594.63 197.865 613.102 166.758 621.387C113.774 644.934 119.832 659.251 112.842 678.423C149.816 716.565 194.018 746.96 242.867 767.832C291.716 788.704 344.234 799.636 397.355 799.989C450.475 800.342 503.134 790.109 552.256 769.888C601.379 749.667 645.981 719.863 683.459 682.216Z" fill="#F9DCA4"/>
<path opacity="0.11" fill-rule="evenodd" clip-rule="evenodd" d="M487.73 501.982L487.536 534.358C486.345 547.755 488.806 561.224 494.656 573.335C437.024 617.607 329.037 606.927 317.102 496.48L487.73 501.982Z" fill="black"/>
<path fill-rule="evenodd" clip-rule="evenodd" d="M247.379 313.05C209.088 329.749 241.657 408.972 265.761 408.623C255.759 377.634 249.586 345.538 247.379 313.05Z" fill="#F9DCA4"/>
<path fill-rule="evenodd" clip-rule="evenodd" d="M563.199 313.037C601.516 329.762 568.934 408.972 544.83 408.623C554.83 377.629 560.999 345.529 563.199 313.037Z" fill="#F9DCA4"/>
<path fill-rule="evenodd" clip-rule="evenodd" d="M402.771 112.182C515.677 112.182 562.992 192.441 565.891 285.218C569.865 412.208 492.428 562.63 402.784 562.63C317.865 562.63 238.304 407.056 243.133 278.771C246.499 188.764 292.505 112.182 402.771 112.182Z" fill="#FFE8BE"/>
<path fill-rule="evenodd" clip-rule="evenodd" d="M403.665 177.308C396.17 208.518 360.946 308.92 215.496 324.972C200.35 74.848 390.707 80.9839 403.665 81.6959C416.636 80.9839 606.993 74.835 591.834 324.972C446.397 308.92 411.16 208.518 403.665 177.308Z" fill="#464449"/>
<path fill-rule="evenodd" clip-rule="evenodd" d="M683.459 682.216C490.966 741.478 241.153 705.711 166.758 621.387C113.774 644.934 119.832 659.251 112.842 678.423C149.816 716.565 194.018 746.96 242.867 767.832C291.716 788.704 344.234 799.636 397.355 799.989C450.475 800.342 503.134 790.11 552.256 769.889C601.379 749.668 645.981 719.863 683.459 682.216Z" fill="#E9573E"/>
<path fill-rule="evenodd" clip-rule="evenodd" d="M554.008 602.177L567.872 605.452L567.82 710.54H554.008V602.177Z" fill="#E9573E"/>
<path fill-rule="evenodd" clip-rule="evenodd" d="M308.531 575.018C308.557 575.186 319.897 632.636 406.189 632.636C492.156 632.636 497.399 576.895 497.412 576.74L499.846 579.109C499.846 579.264 492.545 639.976 406.189 639.976C318.201 639.976 305.787 577.452 305.748 577.258L308.531 575.018Z" fill="#464449"/>
<path d="M405.488 664.788C416.303 664.788 425.07 653.723 425.07 640.072C425.07 626.422 416.303 615.356 405.488 615.356C394.673 615.356 385.906 626.422 385.906 640.072C385.906 653.723 394.673 664.788 405.488 664.788Z" fill="#464449"/>
</g>
<defs>
<clipPath id="clip0_839_693">
<rect width="800" height="800" fill="white"/>
</clipPath>
</defs>
</svg>
