<svg width="800" height="800" viewBox="0 0 800 800" fill="none" xmlns="http://www.w3.org/2000/svg">
<g clip-path="url(#clip0_839_680)">
<path d="M400 800C620.914 800 800 620.914 800 400C800 179.086 620.914 0 400 0C179.086 0 0 179.086 0 400C0 620.914 179.086 800 400 800Z" fill="#54A0FF"/>
<path fill-rule="evenodd" clip-rule="evenodd" d="M680.739 684.895C605.252 759.301 503.315 800.698 397.324 799.992C291.334 799.285 189.958 756.534 115.469 681.128C124.995 654.784 143.498 632.638 167.728 618.578C184.058 606.504 201.766 596.414 220.479 588.52C192.026 490.746 269.372 442.681 298.964 428.843C298.964 473.982 341.23 444.027 393.683 444.597C436.868 445.076 522.266 488.545 522.266 431.199C569.774 445.257 621.555 535.795 585.917 591.419C600.528 598.564 614.333 607.252 627.095 617.335C652.044 633.211 670.936 656.996 680.739 684.895Z" fill="#677079"/>
<path fill-rule="evenodd" clip-rule="evenodd" d="M311.095 500.713L504.235 501.878V546.37L504.144 547.057C504.01 549.072 503.707 551.073 503.238 553.037L502.591 557.451L502.202 558.371C489.697 624.054 434.979 649.439 401.192 667.122C365.593 647.73 315.263 612.791 311.263 550.979L311.095 550.215V547.626C311.067 546.733 311.05 545.84 311.043 544.947C311.043 545.413 311.082 545.853 311.095 546.319V500.713Z" fill="#F9DCA4"/>
<path opacity="0.11" fill-rule="evenodd" clip-rule="evenodd" d="M504.248 499.898V551.743C504.211 556.548 503.8 561.344 503.019 566.086C502.038 571.955 500.388 577.693 498.1 583.186C430.993 633.866 324.067 592.3 306.992 505.736L504.248 499.898Z" fill="black"/>
<path fill-rule="evenodd" clip-rule="evenodd" d="M234.357 326.668C170.409 343.108 224.778 421.037 264.998 420.701C248.778 391.642 238.371 359.704 234.357 326.668Z" fill="#F9DCA4"/>
<path fill-rule="evenodd" clip-rule="evenodd" d="M567.47 326.668C631.419 343.108 577.05 421.037 536.816 420.688C553.041 391.635 563.452 359.701 567.47 326.668Z" fill="#F9DCA4"/>
<path fill-rule="evenodd" clip-rule="evenodd" d="M397.839 147.068C663.509 147.068 559.975 567.083 397.839 567.083C244.699 567.083 132.168 147.068 397.839 147.068Z" fill="#FFE8BE"/>
<path fill-rule="evenodd" clip-rule="evenodd" d="M272.455 286.15C274.721 288.634 276.402 291.595 277.374 294.814C278.345 298.034 278.582 301.43 278.068 304.753C277.554 308.077 276.302 311.242 274.403 314.018C272.504 316.793 270.007 319.108 267.096 320.791C248.325 336.234 247.639 390.085 247.639 390.085C240.39 382.888 240.558 344.338 224.843 322.059C209.128 299.781 198.539 143.897 286.423 87.2107C281.022 93.5629 277.13 101.055 275.038 109.126C272.946 117.197 272.709 125.637 274.345 133.813C274.345 133.813 335.394 46.2656 436.675 48.7899C428.646 53.1681 421.629 59.1889 416.082 66.4601C410.535 73.7313 406.582 82.0897 404.481 90.9907C404.481 90.9907 493.025 54.4598 566.812 97.9163C547.628 103.219 529.484 111.741 513.155 123.12C548.987 124.104 583.614 130.758 609.725 153.981C604.105 155.785 598.904 158.697 594.429 162.545C589.954 166.393 586.296 171.098 583.67 176.384C581.044 181.669 579.504 187.428 579.141 193.318C578.778 199.209 579.599 205.112 581.556 210.68C592.637 256.027 593.673 298.215 582.941 320.894C572.21 343.574 567.148 328.933 560.43 376.493C560.101 379.706 559.029 382.799 557.299 385.526C555.569 388.253 553.228 390.541 550.462 392.208C550.203 395.652 555.407 343.587 541.983 329.723C528.572 315.872 536.999 298.849 542.359 288.778C579.77 218.525 467.731 186.693 406.488 186.771C353.374 186.836 225.257 210.978 272.455 286.15Z" fill="#8A5C42"/>
<path fill-rule="evenodd" clip-rule="evenodd" d="M256.182 636.403C256.57 636.895 391.043 810.941 549.128 633.814C530.034 686.268 447.677 727.925 400.57 727.795C310.603 727.536 260.816 655.303 256.182 636.403Z" fill="#434955"/>
<path fill-rule="evenodd" clip-rule="evenodd" d="M470.371 793.828C465.064 794.76 459.731 795.575 454.358 796.313V680.623C454.555 678.686 455.503 676.902 456.998 675.654C458.493 674.406 460.417 673.792 462.358 673.944C464.302 673.788 466.23 674.4 467.728 675.649C469.225 676.898 470.175 678.683 470.371 680.623V793.828ZM343.251 795.976C337.883 795.208 332.546 794.345 327.238 793.388V680.623C327.435 678.686 328.382 676.902 329.878 675.654C331.373 674.406 333.297 673.792 335.238 673.944C337.184 673.785 339.115 674.395 340.616 675.644C342.116 676.893 343.067 678.681 343.264 680.623L343.251 795.976Z" fill="#E6E6E6"/>
</g>
<defs>
<clipPath id="clip0_839_680">
<rect width="800" height="800" fill="white"/>
</clipPath>
</defs>
</svg>
