<svg width="90" height="90" viewBox="0 0 90 90" fill="none" xmlns="http://www.w3.org/2000/svg">
<path d="M37.5 77.5C37.5 83.0225 35.5225 87.5 30 87.5H12.5C2.5 87.5 2.5 52.5 12.5 52.5H30C35.5225 52.5 37.5 56.9775 37.5 62.5V77.5Z" fill="#553788"/>
<path d="M85 82.5H82.5V57.5H85C85.663 57.5 86.2989 57.2366 86.7678 56.7678C87.2366 56.2989 87.5 55.663 87.5 55C87.5 54.337 87.2366 53.7011 86.7678 53.2322C86.2989 52.7634 85.663 52.5 85 52.5H25C15 52.5 15 87.5 25 87.5H85C85.663 87.5 86.2989 87.2366 86.7678 86.7678C87.2366 86.2989 87.5 85.663 87.5 85C87.5 84.337 87.2366 83.7011 86.7678 83.2322C86.2989 82.7634 85.663 82.5 85 82.5Z" fill="#9266CC"/>
<path d="M85.43 82.5H27.5C22.5 82.5 22.5 57.5 27.5 57.5H85.43C88.19 57.5 88.19 82.5 85.43 82.5Z" fill="#CCD6DD"/>
<path d="M28.75 62.5H87.125C86.7875 59.5625 86.225 57.5 85.43 57.5H27.5C23.3725 57.5 22.655 74.52 25.3425 80.47C24.3625 73.0725 25.4975 62.5 28.75 62.5Z" fill="#99AAB5"/>
<path d="M30 20C30 22.6522 28.9464 25.1957 27.0711 27.0711C25.1957 28.9464 22.6522 30 20 30H10C2.38419e-07 30 2.38419e-07 2.5 10 2.5H20C22.6522 2.5 25.1957 3.55357 27.0711 5.42893C28.9464 7.3043 30 9.84783 30 12.5V20Z" fill="#226699"/>
<path d="M77.5 25H75V7.5H77.5C78.163 7.5 78.7989 7.23661 79.2678 6.76777C79.7366 6.29893 80 5.66304 80 5C80 4.33696 79.7366 3.70107 79.2678 3.23223C78.7989 2.76339 78.163 2.5 77.5 2.5H17.5C7.5 2.5 7.5 30 17.5 30H77.5C78.163 30 78.7989 29.7366 79.2678 29.2678C79.7366 28.7989 80 28.163 80 27.5C80 26.837 79.7366 26.2011 79.2678 25.7322C78.7989 25.2634 78.163 25 77.5 25Z" fill="#55ACEE"/>
<path d="M77.93 25H20C15 25 15 7.5 20 7.5H77.93C80.69 7.5 80.69 25 77.93 25Z" fill="#CCD6DD"/>
<path d="M20 12.5H79.8125C79.5275 9.6875 78.9025 7.5 77.93 7.5H20C17.0175 7.5 15.8275 13.7225 16.405 18.75C16.795 15.355 17.9825 12.5 20 12.5Z" fill="#99AAB5"/>
<path d="M50 42.5C50 45.1522 48.9464 47.6957 47.0711 49.5711C45.1957 51.4464 42.6522 52.5 40 52.5H15C5 52.5 5 30 15 30H40C42.6522 30 45.1957 31.0536 47.0711 32.9289C48.9464 34.8043 50 37.3478 50 40V42.5Z" fill="#F4900C"/>
<path d="M87.5 47.5H85V35H87.5C88.163 35 88.7989 34.7366 89.2678 34.2678C89.7366 33.7989 90 33.163 90 32.5C90 31.837 89.7366 31.2011 89.2678 30.7322C88.7989 30.2634 88.163 30 87.5 30H37.5C27.5 30 27.5 52.5 37.5 52.5H87.5C88.163 52.5 88.7989 52.2366 89.2678 51.7678C89.7366 51.2989 90 50.663 90 50C90 49.337 89.7366 48.7011 89.2678 48.2322C88.7989 47.7634 88.163 47.5 87.5 47.5Z" fill="#FFAC33"/>
<path d="M87.93 47.5H40C35 47.5 35 35 40 35H87.93C90.69 35 90.69 47.5 87.93 47.5Z" fill="#CCD6DD"/>
<path d="M40 40H89.96C89.7975 37.345 89.125 35 87.93 35H40C36.815 35 35.6675 40.0675 36.5425 43.75C37.0375 41.6525 38.185 40 40 40Z" fill="#99AAB5"/>
</svg>
