<svg width="90" height="90" viewBox="0 0 90 90" fill="none" xmlns="http://www.w3.org/2000/svg">
<path d="M86.8866 42.1875C84.4987 21.6084 67.0331 5.625 45.8128 5.625H42.3478C20.5116 5.625 2.8125 23.3241 2.8125 45.1603C2.8125 48.8474 4.27719 52.3835 6.88436 54.9906C9.49152 57.5978 13.0276 59.0625 16.7147 59.0625H22.5703C22.9204 62.9048 24.694 66.4775 27.543 69.0793C30.392 71.6811 34.1105 73.1241 37.9688 73.125H67.5C72.7215 73.125 77.729 71.0508 81.4212 67.3587C85.1133 63.6665 87.1875 58.659 87.1875 53.4375V46.9997C87.1875 45.3684 87.0694 43.7681 86.8866 42.1875Z" fill="#FF6DC6"/>
<path d="M70.3125 73.0744V83.2106C70.3121 83.6275 70.1882 84.035 69.9564 84.3816C69.7246 84.7281 69.3953 84.9982 69.0101 85.1577C68.6249 85.3172 68.201 85.3589 67.7921 85.2777C67.3832 85.1965 67.0075 84.9959 66.7125 84.7012L55.1362 73.125L70.3125 73.0744ZM28.6256 21.195C28.7781 21.1473 28.9128 21.0552 29.0125 20.9304C29.1122 20.8056 29.1724 20.6539 29.1853 20.4947C29.3906 18.0478 29.5537 15.5925 29.5312 13.1034C28.7466 15.2241 28.125 17.3728 27.54 19.5272C22.2393 20.4049 17.4169 23.1213 13.9191 27.1997C10.3134 31.3537 8.24624 36.8606 8.59218 42.1875C10.08 37.1025 12.5184 32.6194 15.9328 29.0109C19.3764 25.39 23.693 22.715 28.4681 21.2428L28.6256 21.195ZM55.3556 14.5097C54.5962 12.9206 53.2547 11.6269 51.6712 10.7494C50.0906 9.84937 48.24 9.41906 46.4062 9.39656C44.5725 9.42469 42.7247 9.855 41.1441 10.755C39.5634 11.6297 38.2191 12.9234 37.4569 14.5097C40.5759 12.9825 43.4278 12.1894 46.4062 12.2091C49.3847 12.195 52.2281 12.9853 55.3556 14.5097ZM31.0922 42.4631C30.2356 42.7376 29.4076 43.0946 28.62 43.5291C28.5952 43.27 28.5549 43.0126 28.4991 42.7584C28.1961 41.5067 27.5561 40.3618 26.6484 39.4481C24.8456 37.6369 21.9319 36.8184 19.6875 37.9687C21.8672 39.0994 23.3466 40.1034 24.66 41.4337C25.5572 42.3225 26.3025 43.3012 27.0422 44.5022C26.3391 45 25.6584 45.5344 25.0425 46.1362C23.3691 47.8406 22.0584 49.9191 21.3637 52.1831C20.6522 54.4331 20.5087 56.8491 21.0937 59.0625C22.2244 54.6694 24.1341 51.0019 27.0281 48.1219C29.8997 45.2222 33.5756 43.3125 37.9687 42.1875C35.7553 41.6081 33.3394 41.7516 31.0922 42.4631ZM64.8056 54.9506C63.6244 55.1672 62.0522 54.945 60.4997 54.9225L55.89 54.8437C53.8341 54.8578 51.7753 54.9141 49.7194 54.9984C51.1453 53.4431 51.7303 51.0244 50.625 49.2187C49.4916 51.0328 48.6422 52.1409 47.5706 53.1956C46.8309 53.9409 46.0519 54.585 45.0366 55.2937C42.5109 55.5047 39.9853 55.7916 37.4597 56.25C43.605 57.3637 49.7475 57.6141 55.8928 57.6562L56.8941 57.6394C57.6225 58.1822 58.2384 58.7109 58.8234 59.3044C59.8894 60.3619 60.7387 61.47 61.8778 63.2812C62.4656 62.3559 62.5753 61.2281 62.3559 60.1706C62.1731 59.1947 61.6528 58.3116 60.9919 57.5578L62.8088 57.4791C63.5456 57.4734 64.5637 57.3637 65.3709 57.0684C68.8331 56.0278 70.9819 52.3266 70.3181 49.2216C69.7275 52.3069 67.3791 54.5203 64.8056 54.9506ZM82.5891 47.4272C81.8269 44.9916 80.4122 42.7612 78.6066 40.9247C76.77 39.1219 74.5369 37.7072 72.1012 36.945C70.6154 36.4697 69.0627 36.237 67.5028 36.2559C69.2325 34.4503 70.5966 32.2819 71.3363 29.9137C72.1209 27.495 72.2981 24.8991 71.7187 22.5C70.5937 27.2616 68.5322 31.3003 65.3709 34.4334C62.2322 37.5919 58.1991 39.6478 53.4375 40.7812C55.8366 41.3662 58.4353 41.1891 60.8541 40.4016C62.955 39.7434 64.8872 38.5791 66.5634 37.1194C70.5037 38.3147 73.9181 40.1794 76.6237 42.9075C79.7822 46.0462 81.8381 50.0794 82.9716 54.8409C83.5537 52.4447 83.3766 49.8459 82.5891 47.4272Z" fill="#F70A8D"/>
</svg>
