<svg width="732" height="144" viewBox="0 0 732 144" fill="none" xmlns="http://www.w3.org/2000/svg">
<path d="M187.775 28.6228C187.775 24.8434 189.035 22.3239 190.295 21.0641C192.815 18.5445 195.334 17.2847 199.113 17.2847C202.893 17.2847 205.412 18.5445 206.672 19.8043C209.192 22.3239 209.192 24.8434 209.192 27.363C209.192 31.1423 207.932 33.6619 206.672 34.9217C204.153 37.4412 201.633 37.4412 199.113 37.4412C195.334 37.4412 192.815 36.1814 191.555 34.9217C189.035 34.9217 187.775 32.4021 187.775 28.6228ZM207.932 125.626H190.295V51.2988H207.932V125.626Z" fill="black"/>
<path d="M268.401 50.039C273.44 50.039 277.22 51.2988 280.999 52.5586C283.519 53.8183 286.038 56.3379 287.298 60.1172C288.558 62.6368 289.817 66.4162 289.817 70.1955C289.817 73.9748 291.077 77.7542 291.077 81.5335V125.626H274.7V80.2738C274.7 75.2346 273.44 71.4553 272.18 70.1955C269.661 68.9357 267.141 67.6759 264.622 67.6759C262.102 67.6759 258.323 67.6759 255.803 68.9357C253.284 70.1955 250.764 71.4553 248.245 73.9748C245.725 76.4944 244.465 77.7542 241.946 80.2738L240.686 70.1955H244.465V124.366H226.828V50.039H239.426L243.206 63.8966H238.166C240.686 61.377 244.465 57.5977 246.985 56.3379C249.504 55.0781 253.284 52.5586 257.063 51.2988C260.842 50.039 264.622 50.039 268.401 50.039Z" fill="black"/>
<path d="M333.91 126.886C328.871 126.886 323.832 125.626 318.793 123.106C313.754 120.587 309.975 116.807 306.195 110.509L317.533 101.69C320.053 105.469 323.832 107.989 326.352 109.249C328.871 110.509 332.651 111.768 336.43 111.768C338.95 111.768 341.469 110.509 342.729 109.249C343.989 107.989 345.248 105.469 345.248 104.21C345.248 102.95 345.248 101.69 343.989 100.43C342.729 99.1705 341.469 97.9107 338.95 97.9107C336.43 96.6509 333.91 95.3911 330.131 95.3911C322.572 92.8716 317.533 90.352 313.754 87.8325C309.975 84.0531 307.455 79.014 307.455 72.7151C307.455 68.9357 308.715 65.1564 311.234 61.377C313.754 57.5977 316.273 55.0781 320.053 52.5586C323.832 50.039 328.871 50.039 333.91 50.039C340.209 50.039 346.508 51.2988 350.288 53.8183C355.327 56.3379 359.106 60.1173 361.626 62.6368L349.028 72.7151C347.768 70.1955 345.248 68.9357 342.729 67.6759C340.209 66.4162 336.43 65.1564 332.651 65.1564C330.131 65.1564 327.612 65.1564 326.352 66.4162C323.832 67.6759 323.832 68.9357 323.832 71.4553C323.832 73.9749 325.092 75.2346 326.352 76.4944C328.871 77.7542 331.391 79.014 337.69 80.2738C346.508 82.7933 352.807 85.3129 356.587 89.0922C360.366 92.8716 362.885 96.6509 362.885 102.95C362.885 107.989 361.626 111.768 359.106 115.548C356.587 119.327 352.807 121.847 349.028 124.366C343.989 125.626 338.95 126.886 333.91 126.886Z" fill="black"/>
<path d="M408.237 126.886C400.678 126.886 394.38 125.626 388.081 121.847C381.782 118.067 378.002 114.288 375.483 107.989C372.963 101.69 370.444 95.3912 370.444 87.8325C370.444 80.2738 371.704 73.9749 375.483 67.676C378.002 61.3771 383.042 57.5977 388.081 53.8184C393.12 50.039 400.678 48.7792 408.237 48.7792C415.796 48.7792 422.095 51.2988 428.394 55.0781C434.693 58.8575 438.472 63.8966 440.992 70.1955L424.614 77.7542C423.355 73.9749 420.835 71.4553 418.315 68.9357C415.796 66.4162 412.017 66.4162 408.237 66.4162C403.198 66.4162 398.159 67.676 394.38 72.7151C390.6 76.4944 389.34 81.5336 389.34 89.0922C389.34 95.3912 390.6 101.69 394.38 105.469C398.159 109.249 403.198 111.768 408.237 111.768C412.017 111.768 415.796 110.509 418.315 109.249C420.835 106.729 423.355 104.21 424.614 100.43L440.992 107.989C438.472 114.288 433.433 119.327 428.394 124.366C422.095 125.626 415.796 126.886 408.237 126.886Z" fill="black"/>
<path d="M452.329 125.626V22.3239H469.966V125.626H452.329ZM501.461 125.626V80.2738C501.461 75.2347 500.201 71.4553 498.941 70.1956C496.422 68.9358 493.902 67.676 491.383 67.676C488.863 67.676 485.084 67.676 482.564 68.9358C480.045 70.1956 477.525 71.4553 475.006 73.9749C472.486 76.4945 471.226 77.7543 468.707 80.2738L464.927 65.1564C467.447 62.6369 471.226 58.8575 473.746 57.5977C477.525 55.0782 480.045 53.8184 483.824 52.5586C487.603 51.2988 491.383 51.2988 495.162 51.2988C500.201 51.2988 503.981 52.5586 507.76 53.8184C510.279 55.0782 512.799 57.5977 514.059 61.3771C515.319 63.8967 516.578 67.676 516.578 71.4554C516.578 75.2347 517.838 79.014 517.838 82.7934V126.886H501.461V125.626Z" fill="black"/>
<path d="M569.489 126.886C561.93 126.886 555.631 125.626 549.332 121.847C543.033 118.067 539.254 114.288 535.475 107.989C531.695 101.69 530.435 95.3912 530.435 87.8325C530.435 80.2738 531.695 73.9749 535.475 67.676C539.254 61.3771 543.033 57.5977 549.332 53.8184C555.631 50.039 561.93 48.7792 569.489 48.7792C577.047 48.7792 583.346 50.039 589.645 53.8184C595.944 57.5977 599.723 61.3771 603.503 67.676C607.282 73.9749 608.542 80.2738 608.542 87.8325C608.542 95.3912 607.282 101.69 603.503 107.989C599.723 114.288 595.944 118.067 589.645 121.847C583.346 125.626 577.047 126.886 569.489 126.886ZM569.489 110.509C575.788 110.509 580.827 107.989 584.606 104.21C588.385 100.43 589.645 95.3912 589.645 89.0922C589.645 82.7933 588.385 77.7542 584.606 73.9749C580.827 70.1955 575.788 67.676 569.489 67.676C563.19 67.676 558.151 70.1955 554.371 73.9749C550.592 77.7542 549.332 82.7933 549.332 89.0922C549.332 95.3912 550.592 100.43 554.371 104.21C559.41 107.989 563.19 110.509 569.489 110.509Z" fill="black"/>
<path d="M655.154 126.886C647.596 126.886 641.297 125.626 634.998 121.847C628.699 118.067 624.92 114.288 621.14 107.989C617.361 101.69 616.101 95.3912 616.101 87.8325C616.101 80.2738 617.361 73.9749 621.14 67.676C624.92 61.3771 628.699 57.5977 634.998 53.8184C641.297 50.039 647.596 48.7792 655.154 48.7792C662.713 48.7792 669.012 50.039 675.311 53.8184C681.61 57.5977 685.389 61.3771 689.169 67.676C692.948 73.9749 694.208 80.2738 694.208 87.8325C694.208 95.3912 692.948 101.69 689.169 107.989C685.389 114.288 681.61 118.067 675.311 121.847C669.012 125.626 662.713 126.886 655.154 126.886ZM655.154 110.509C661.453 110.509 666.493 107.989 670.272 104.21C674.051 100.43 675.311 95.3912 675.311 89.0922C675.311 82.7933 674.051 77.7542 670.272 73.9749C666.493 70.1955 661.453 67.676 655.154 67.676C648.856 67.676 643.816 70.1955 640.037 73.9749C636.258 77.7542 634.998 82.7933 634.998 89.0922C634.998 95.3912 636.258 100.43 640.037 104.21C645.076 107.989 650.115 110.509 655.154 110.509Z" fill="black"/>
<path d="M723.182 125.626C720.662 125.626 718.143 124.366 715.623 123.106C713.104 121.847 711.844 119.327 709.324 116.807C706.805 114.288 706.805 110.509 706.805 106.729V22.3239H724.442V101.69C724.442 105.469 725.701 106.729 726.961 107.989C728.221 109.249 730.741 109.249 732 109.249V124.366C730.741 124.366 729.481 125.626 728.221 125.626C726.961 125.626 724.442 125.626 723.182 125.626Z" fill="black"/>
<g clip-path="url(#clip0_3_97)">
<path d="M7.1864 135.102C7.1864 137.389 8.03943 139.582 9.55782 141.2C11.0762 142.817 13.1356 143.725 15.2829 143.725H120.538C122.685 143.725 124.744 142.817 126.263 141.2C127.781 139.582 128.634 137.389 128.634 135.102V107.794H7.1864V135.102ZM100.296 0H115.14C115.856 0 116.542 0.302849 117.048 0.841923C117.555 1.381 117.839 2.11214 117.839 2.87451V25.8706C117.839 26.6329 117.555 27.3641 117.048 27.9031C116.542 28.4422 115.856 28.7451 115.14 28.7451H100.296C99.5807 28.7451 98.8942 28.4422 98.3881 27.9031C97.882 27.3641 97.5976 26.6329 97.5976 25.8706V2.87451C97.5976 2.11214 97.882 1.381 98.3881 0.841923C98.8942 0.302849 99.5807 0 100.296 0ZM20.6806 0H35.5242C36.24 0 36.9265 0.302849 37.4326 0.841923C37.9387 1.381 38.2231 2.11214 38.2231 2.87451V25.8706C38.2231 26.6329 37.9387 27.3641 37.4326 27.9031C36.9265 28.4422 36.24 28.7451 35.5242 28.7451H20.6806C19.9648 28.7451 19.2784 28.4422 18.7722 27.9031C18.2661 27.3641 17.9818 26.6329 17.9818 25.8706V2.87451C17.9818 2.11214 18.2661 1.381 18.7722 0.841923C19.2784 0.302849 19.9648 0 20.6806 0Z" fill="#121212"/>
<path d="M24.0739 28.7451H26.7524V0H24.0739V28.7451ZM30.7701 0V28.7451H33.4487V0H30.7701ZM103.09 28.7451H105.769V0H103.09V28.7451ZM109.786 0V28.7451H112.465V0H109.786Z" fill="#2F3640"/>
<path d="M76.1743 7.18634V14.3726H83.3606L76.1743 7.18634ZM58.9273 14.3726V7.18634L51.741 14.3726H58.9273Z" fill="black"/>
<path d="M67.4619 5.74902C71.3152 5.74902 74.4196 6.82983 76.1415 8.44961L76.1745 7.9049C76.1745 4.3362 72.6202 1.43726 67.4619 1.43726C62.305 1.43726 58.9275 4.3362 58.9275 7.9049L58.9835 8.37631C60.6666 6.79677 63.669 5.74902 67.4619 5.74902Z" fill="#2F3640"/>
<path d="M34.1748 14.3726H101.646C116.552 14.3726 128.634 27.2432 128.634 43.1176V107.794H7.1864V43.1176C7.1864 27.2446 19.2691 14.3726 34.1748 14.3726Z" fill="#54A0FF"/>
<path d="M82.0103 45.9045L69.7965 33.6878C69.3912 33.2833 68.842 33.0561 68.2694 33.0561C67.6968 33.0561 67.1476 33.2833 66.7423 33.6878L54.5286 45.9045C54.1242 46.3092 53.8971 46.858 53.8971 47.4301C53.8971 48.0022 54.1242 48.551 54.5286 48.9557L66.7423 61.1695C66.9426 61.3705 67.1806 61.53 67.4427 61.6388C67.7047 61.7476 67.9857 61.8036 68.2694 61.8036C68.5532 61.8036 68.8341 61.7476 69.0962 61.6388C69.3582 61.53 69.5962 61.3705 69.7965 61.1695L82.0103 48.9557C82.4143 48.5508 82.6411 48.0021 82.6411 47.4301C82.6411 46.8581 82.4143 46.3094 82.0103 45.9045ZM66.8314 49.5853C66.8314 50.157 66.6043 50.7054 66.2 51.1097C65.7957 51.514 65.2473 51.7411 64.6756 51.7411C64.1038 51.7411 63.5554 51.514 63.1511 51.1097C62.7468 50.7054 62.5197 50.157 62.5197 49.5853V45.2735C62.5197 44.7017 62.7468 44.1534 63.1511 43.7491C63.5554 43.3448 64.1038 43.1176 64.6756 43.1176C65.2473 43.1176 65.7957 43.3448 66.2 43.7491C66.6043 44.1534 66.8314 44.7017 66.8314 45.2735V49.5853ZM74.0177 49.5853C74.0177 50.157 73.7906 50.7054 73.3863 51.1097C72.982 51.514 72.4336 51.7411 71.8618 51.7411C71.2901 51.7411 70.7417 51.514 70.3374 51.1097C69.9331 50.7054 69.7059 50.157 69.7059 49.5853V45.2735C69.7059 44.7017 69.9331 44.1534 70.3374 43.7491C70.7417 43.3448 71.2901 43.1176 71.8618 43.1176C72.4336 43.1176 72.982 43.3448 73.3863 43.7491C73.7906 44.1534 74.0177 44.7017 74.0177 45.2735V49.5853Z" fill="#2F3640"/>
<path d="M109.95 83.3607C109.95 81.836 109.378 80.3737 108.361 79.2955C107.344 78.2174 105.964 77.6117 104.525 77.6117H31.295C29.8564 77.6117 28.4766 78.2174 27.4593 79.2955C26.442 80.3737 25.8705 81.836 25.8705 83.3607V91.9842H28.5828V117.855C28.5828 119.38 29.1543 120.842 30.1716 121.92C31.1889 122.998 32.5686 123.604 34.0073 123.604H101.813C103.252 123.604 104.632 122.998 105.649 121.92C106.666 120.842 107.238 119.38 107.238 117.855V91.9842H109.95V83.3607Z" fill="#2E86DE"/>
<path d="M107.076 94.8121V91.9842H28.7452V94.8121H39.9708V99.9378C39.9712 100.544 40.1578 101.134 40.5029 101.621C40.8481 102.108 41.3335 102.466 41.8877 102.642C42.4418 102.818 43.0353 102.803 43.5807 102.599C44.126 102.395 44.5943 102.013 44.9164 101.509C44.516 101.75 44.0629 101.878 43.601 101.882C42.8846 101.882 42.1976 101.584 41.6911 101.054C41.1845 100.523 40.8999 99.8041 40.8999 99.0541V94.8121H107.076Z" fill="#2975C2"/>
<path d="M40.9616 91.9842V99.1705C40.9616 99.9328 41.2645 100.664 41.8035 101.203C42.3426 101.742 43.0737 102.045 43.8361 102.045C44.5985 102.045 45.3296 101.742 45.8687 101.203C46.4078 100.664 46.7106 99.9328 46.7106 99.1705V91.9842H40.9616ZM43.8361 100.608C43.4549 100.608 43.0894 100.456 42.8198 100.187C42.5503 99.9172 42.3989 99.5516 42.3989 99.1705C42.3989 98.7893 42.5503 98.4237 42.8198 98.1542C43.0894 97.8846 43.4549 97.7332 43.8361 97.7332C44.2173 97.7332 44.5829 97.8846 44.8524 98.1542C45.1219 98.4237 45.2734 98.7893 45.2734 99.1705C45.2734 99.5516 45.1219 99.9172 44.8524 100.187C44.5829 100.456 44.2173 100.608 43.8361 100.608Z" fill="#EBEDEE"/>
<path d="M101.646 14.3726H34.1748C19.2691 14.3726 7.1864 27.2446 7.1864 43.1176V47.4294C7.1864 31.5549 19.2691 18.6843 34.1748 18.6843H101.646C116.552 18.6843 128.634 31.5549 128.634 47.4294V43.1176C128.634 27.2446 116.552 14.3726 101.646 14.3726Z" fill="#3396F9"/>
<path d="M40.9616 91.9842H46.7106V94.8587H40.9616V91.9842Z" fill="#D3D5D6"/>
<path d="M43.8365 97.7333C43.5393 97.7347 43.25 97.8292 43.0092 98.0035C42.7685 98.1777 42.5883 98.423 42.4941 98.7049L42.8491 98.6316C43.6424 98.6316 44.2863 99.2769 44.2863 100.069C44.2863 100.234 44.2432 100.389 44.1929 100.537C44.4993 100.462 44.7719 100.287 44.9676 100.039C45.1633 99.7917 45.271 99.4861 45.2737 99.1705C45.2737 98.3786 44.6298 97.7333 43.8365 97.7333Z" fill="#2F3640"/>
<path d="M39.973 91.9842H40.9618V94.8587H39.973V91.9842Z" fill="#2F3640"/>
<path d="M120.538 139.414H15.2829C13.1356 139.414 11.0762 138.505 9.55782 136.888C8.03943 135.271 7.1864 133.077 7.1864 130.79L7.1864 135.102C7.1864 137.389 8.03943 139.582 9.55782 141.2C11.0762 142.817 13.1356 143.725 15.2829 143.725H120.538C122.685 143.725 124.744 142.817 126.263 141.2C127.781 139.582 128.634 137.389 128.634 135.102V130.79C128.634 133.077 127.781 135.271 126.263 136.888C124.744 138.505 122.685 139.414 120.538 139.414ZM101.646 123.604H34.1748C32.7433 123.604 31.3703 122.998 30.3581 121.92C29.3458 120.842 28.7771 119.379 28.7771 117.855V120.729C28.7771 122.254 29.3458 123.716 30.3581 124.794C31.3703 125.873 32.7433 126.478 34.1748 126.478H101.646C103.077 126.478 104.45 125.873 105.463 124.794C106.475 123.716 107.044 122.254 107.044 120.729V117.855C107.044 119.379 106.475 120.842 105.463 121.92C104.45 122.998 103.077 123.604 101.646 123.604Z" fill="#2F3640"/>
</g>
<defs>
<clipPath id="clip0_3_97">
<rect width="134.742" height="143.725" fill="white"/>
</clipPath>
</defs>
</svg>
