<svg width="22" height="22" viewBox="0 0 22 22" fill="none" xmlns="http://www.w3.org/2000/svg">
<rect width="22" height="22" rx="5" fill="#978EFF"/>
<g clip-path="url(#clip0_585_737)">
<path d="M11 8.63637C10.4213 8.63637 9.86639 8.86624 9.45722 9.27541C9.04805 9.68458 8.81818 10.2395 8.81818 10.8182C8.81818 11.3968 9.04805 11.9518 9.45722 12.361C9.86639 12.7701 10.4213 13 11 13C11.5787 13 12.1336 12.7701 12.5428 12.361C12.9519 11.9518 13.1818 11.3968 13.1818 10.8182C13.1818 10.2395 12.9519 9.68458 12.5428 9.27541C12.1336 8.86624 11.5787 8.63637 11 8.63637ZM11 14.4546C10.0356 14.4546 9.11065 14.0714 8.4287 13.3895C7.74675 12.7075 7.36364 11.7826 7.36364 10.8182C7.36364 9.85377 7.74675 8.92885 8.4287 8.2469C9.11065 7.56495 10.0356 7.18183 11 7.18183C11.9644 7.18183 12.8893 7.56495 13.5713 8.2469C14.2532 8.92885 14.6364 9.85377 14.6364 10.8182C14.6364 11.7826 14.2532 12.7075 13.5713 13.3895C12.8893 14.0714 11.9644 14.4546 11 14.4546ZM11 5.36365C7.36364 5.36365 4.25818 7.62547 3 10.8182C4.25818 14.0109 7.36364 16.2727 11 16.2727C14.6364 16.2727 17.7418 14.0109 19 10.8182C17.7418 7.62547 14.6364 5.36365 11 5.36365Z" fill="white"/>
</g>
<defs>
<clipPath id="clip0_585_737">
<rect width="16" height="11.6364" fill="white" transform="translate(3 5)"/>
</clipPath>
</defs>
</svg>
