<svg width="22" height="22" viewBox="0 0 22 22" fill="none" xmlns="http://www.w3.org/2000/svg">
<rect width="22" height="22" rx="5" fill="#FF0000"/>
<g clip-path="url(#clip0_585_714)">
<path fill-rule="evenodd" clip-rule="evenodd" d="M7.78589 6.01673L5.33629 9.33113C4.30829 10.7223 3.79389 11.4175 4.07709 11.9639L4.09149 11.9911C4.39149 12.5295 5.27948 12.5295 7.05468 12.5295C8.04108 12.5295 8.53468 12.5295 8.84348 12.8199L8.85949 12.8359L11.9571 9.17993L11.9411 9.16393C11.6379 8.86713 11.6379 8.39353 11.6379 7.44553V7.19753C11.6379 4.56953 11.6379 3.25593 10.8995 3.02953C10.1611 2.80313 9.36908 3.87433 7.78589 6.01673Z" fill="white"/>
<path opacity="0.5" d="M9.16257 14.5543V14.8023C9.16257 17.4295 9.16258 18.7439 9.90098 18.9703C10.6394 19.1967 11.4314 18.1255 13.0154 15.9831L15.465 12.6687C16.4922 11.2775 17.0066 10.5823 16.7234 10.0359C16.7187 10.0268 16.7139 10.0177 16.709 10.0087C16.409 9.47033 15.521 9.47033 13.7458 9.47033C12.7594 9.47033 12.2658 9.47033 11.957 9.17993L8.85938 12.8359C9.16258 13.1327 9.16257 13.6063 9.16257 14.5543Z" fill="white"/>
</g>
<defs>
<clipPath id="clip0_585_714">
<rect width="12.8" height="16" fill="white" transform="translate(4 3)"/>
</clipPath>
</defs>
</svg>
